<svg width="24" height="24" viewBox="0 0 24 24" fill="none" xmlns="http://www.w3.org/2000/svg">
<path d="M18.6835 5.31648C18.2616 4.89451 17.5774 4.89451 17.1554 5.31648L12 10.4719L6.84457 5.31648C6.4226 4.89451 5.73845 4.89451 5.31648 5.31648C4.89451 5.73845 4.89451 6.4226 5.31648 6.84457L10.4719 12L5.31648 17.1554C4.89451 17.5774 4.89451 18.2616 5.31648 18.6835C5.73845 19.1055 6.4226 19.1055 6.84457 18.6835L12 13.5281L17.1554 18.6835C17.5774 19.1055 18.2616 19.1055 18.6835 18.6835C19.1055 18.2616 19.1055 17.5774 18.6835 17.1554L13.5281 12L18.6835 6.84457C19.1055 6.4226 19.1055 5.73845 18.6835 5.31648Z" fill="#878787"/>
</svg>
