<svg width="48" height="70" viewBox="0 0 48 70" fill="none" xmlns="http://www.w3.org/2000/svg">
<path fill-rule="evenodd" clip-rule="evenodd" d="M40.3723 0L46.759 6.2179V45.7275H6.35367L0 39.5096V0H40.3723Z" fill="#EA5B0B"/>
<path fill-rule="evenodd" clip-rule="evenodd" d="M2.64736 62.4381C3.0467 62.8764 3.5161 63.2482 4.03723 63.5392C4.44987 63.774 4.91678 63.9022 5.394 63.9116C5.79997 63.9193 6.2004 63.8186 6.55222 63.6202H6.70114C6.98743 63.4151 7.22926 63.1564 7.41262 62.8591C7.53049 62.6496 7.63547 62.4333 7.72699 62.2114C7.82939 61.9588 7.91235 61.699 7.97518 61.4342C8.14579 60.7769 8.24561 60.104 8.27301 59.4263C8.33988 58.3996 8.13471 57.3733 7.67735 56.4469C7.50714 56.1681 7.26416 55.9387 6.97338 55.7822C6.6826 55.6257 6.35449 55.5477 6.02275 55.5563H2.71355V62.4381H2.64736ZM6.33713 53.4351C6.99618 53.4214 7.65226 53.5257 8.27301 53.7428C8.87311 53.9597 9.3961 54.3421 9.7787 54.8439C10.208 55.4178 10.5224 56.0662 10.7053 56.7546C10.9139 57.5588 11.014 58.3862 11.0031 59.2158C11.0164 60.1297 10.8938 61.0406 10.6391 61.92C10.6075 62.0533 10.5632 62.1834 10.5067 62.3086C10.2796 62.9378 9.962 63.532 9.5636 64.0736C9.13446 64.6737 8.56783 65.1672 7.909 65.5147C7.23569 65.8214 6.50064 65.9763 5.75802 65.9681C5.10376 65.9788 4.45658 65.8343 3.87177 65.5471L3.59049 65.3852C3.24896 65.223 2.93165 65.016 2.64736 64.7698V70.0324H0V53.4351H6.33713Z" fill="#878787"/>
<path fill-rule="evenodd" clip-rule="evenodd" d="M43.7973 53.4675H46.7921L41.8118 59.0053L48 65.709H44.4095L38.5356 59.313L43.7973 53.4675Z" fill="#878787"/>
<path fill-rule="evenodd" clip-rule="evenodd" d="M35.6897 65.4823V49.5165H38.3536V65.4823V65.709H38.1054H35.9213H35.6897V65.4823Z" fill="#878787"/>
<path fill-rule="evenodd" clip-rule="evenodd" d="M25.001 53.4351H27.6649V55.1677C27.8354 54.9633 28.0236 54.7737 28.2275 54.601C29.2054 53.709 30.4978 53.2216 31.8345 53.2408C32.1926 53.2186 32.5518 53.2186 32.91 53.2408L34.1178 53.4351H34.2998V57.1918H32.2316V55.5725H31.9834H31.5863C31.2128 55.5727 30.8407 55.6162 30.4777 55.7021C30.1362 55.7963 29.8082 55.9323 29.5015 56.1069C29.1738 56.3191 28.8689 56.5632 28.5915 56.8355C28.2545 57.1733 27.9447 57.536 27.6649 57.9204V65.7414H25.001V53.4351Z" fill="#878787"/>
<path fill-rule="evenodd" clip-rule="evenodd" d="M19.1604 62.5515V59.9121H18.7467C17.6116 59.8404 16.4758 60.0405 15.4375 60.495C15.1228 60.632 14.8597 60.8616 14.6847 61.1518C14.5097 61.4421 14.4316 61.7785 14.4613 62.1143C14.4567 62.346 14.496 62.5766 14.5771 62.7944V62.8915C14.6573 63.0522 14.7699 63.1954 14.908 63.3125L15.057 63.4259L15.2224 63.5392C15.5412 63.7106 15.9013 63.7945 16.2648 63.7821C17.3136 63.7044 18.3048 63.2821 19.0776 62.5839L19.1604 62.5515ZM19.6237 64.446C19.0827 64.8747 18.4807 65.2239 17.8367 65.4823C17.1876 65.753 16.4905 65.8961 15.785 65.9033C14.7349 65.9431 13.7078 65.5965 12.906 64.9318C12.545 64.6264 12.2521 64.2516 12.0456 63.8307C11.8516 63.3851 11.7504 62.9062 11.7478 62.4219C11.738 61.8108 11.892 61.2079 12.1945 60.6732L12.36 60.4141C12.6642 59.9683 13.0584 59.5881 13.5182 59.2968C13.8067 59.1001 14.1176 58.9371 14.4448 58.811C14.7863 58.6577 15.1406 58.5331 15.5037 58.4386C16.3312 58.2354 17.1821 58.1374 18.0352 58.1471H19.1438V57.3699C19.1495 57.0361 19.1049 56.7033 19.0115 56.3822C18.937 56.1621 18.8189 55.9585 18.664 55.783C18.628 55.737 18.583 55.6985 18.5316 55.6697C18.4775 55.6227 18.4161 55.5844 18.3496 55.5563C17.911 55.3738 17.4358 55.2908 16.9597 55.3135C16.3338 55.3145 15.7107 55.3961 15.1066 55.5563C14.4337 55.7521 13.7803 56.0068 13.1542 56.3174L12.8067 56.4955V54.099H12.9722L13.6175 53.8723L14.2627 53.6942C15.2806 53.4129 16.3323 53.2659 17.3899 53.257C18.6116 53.1391 19.8325 53.4872 20.7984 54.2286C20.8992 54.3141 20.9882 54.412 21.0632 54.52C21.1553 54.6322 21.2383 54.7513 21.3114 54.8763C21.6834 55.6841 21.8589 56.5654 21.8243 57.4509V62.3086C21.8044 62.5997 21.8044 62.8918 21.8243 63.183C21.8464 63.3466 21.8967 63.5054 21.9732 63.6526C22.1386 63.7758 22.3453 63.8336 22.5523 63.8145H22.7839H23.1811H23.4127V65.5795H23.1976L22.8998 65.6604C22.5297 65.772 22.1453 65.832 21.7581 65.8386C21.4025 65.8416 21.0492 65.7813 20.7157 65.6604L20.4179 65.4985C20.0031 65.2195 19.6764 64.8325 19.4747 64.3812L19.6237 64.446Z" fill="#878787"/>
<path fill-rule="evenodd" clip-rule="evenodd" d="M14.8914 10.7356V6.31507V5.87787H15.3381H19.6235H20.0703V6.31507V10.7356V11.1728H19.6235H15.3381H14.8914V10.7356Z" fill="white"/>
<path fill-rule="evenodd" clip-rule="evenodd" d="M40.3724 39.2991C39.2969 39.4934 38.238 39.6229 37.1956 39.7201C36.1532 39.8173 35.0942 39.8658 34.1015 39.8658C32.5927 39.8918 31.0865 39.7341 29.6175 39.3962C28.5284 39.1497 27.5208 38.6372 26.6888 37.9065C26.4948 37.7007 26.3125 37.4844 26.1428 37.2588C25.971 37.013 25.8215 36.753 25.6961 36.4816C24.9263 34.64 24.5762 32.6562 24.6702 30.6685V11.1728H29.8822V15.4314H40.2731V19.5119H29.8822V31.381C29.8822 32.0125 29.8822 32.5306 29.8822 33.0002V33.1945C29.9065 33.4458 29.9508 33.6948 30.0146 33.9394C30.0116 33.9933 30.0116 34.0474 30.0146 34.1013V34.247C30.1936 34.5482 30.4432 34.8035 30.7426 34.9919C31.2524 35.2986 31.812 35.5176 32.3972 35.6396C33.1751 35.7993 33.9685 35.8753 34.7633 35.8663C35.6072 35.8663 36.4179 35.8663 37.3445 35.7206L38.056 35.6234C38.7509 35.5262 39.4789 35.3967 40.1904 35.2348L40.753 35.1052V39.2181H40.3724V39.2991Z" fill="white"/>
<path fill-rule="evenodd" clip-rule="evenodd" d="M14.9079 38.8943V19.5119H6.81686H6.37012V19.0585V15.9172V15.4638H6.81686H19.6235H20.0702V15.9172V38.8943V39.3315H19.6235H15.3546H14.9079V38.8943Z" fill="white"/>
</svg>
