<svg width="156" height="31" viewBox="0 0 156 31" fill="none" xmlns="http://www.w3.org/2000/svg">
<g opacity="0.5">
<path d="M0 0.236919C0.322813 0.157565 0.672528 0.104662 1.04914 0.0782105C1.39886 0.0517594 1.77547 0.0517578 2.15209 0.0517578C2.5287 0.0517578 2.93222 0.0782153 3.33574 0.157569C3.73925 0.236922 4.11587 0.369171 4.43868 0.580779C4.7615 0.792388 5.03051 1.0569 5.24572 1.40076C5.46092 1.74463 5.56853 2.1943 5.56853 2.72332C5.56853 3.25234 5.46092 3.70201 5.27262 4.07232C5.08431 4.44264 4.8153 4.7336 4.49248 4.97166C4.16967 5.20972 3.79306 5.36842 3.38954 5.47423C2.95912 5.55358 2.5287 5.60648 2.09829 5.60648C2.04448 5.60648 1.99068 5.60648 1.88308 5.60648C1.77547 5.60648 1.69477 5.60648 1.58717 5.60648C1.47956 5.60648 1.37196 5.60649 1.26435 5.58004C1.15675 5.58004 1.10295 5.55358 1.04914 5.55358V8.85997H0V0.236919ZM2.17899 0.951101C1.96378 0.951101 1.74857 0.951101 1.53336 0.951101C1.31815 0.951101 1.15675 0.977547 1.04914 1.004V4.6278C1.10295 4.65425 1.15675 4.65425 1.26435 4.65425C1.34506 4.65425 1.45266 4.65425 1.56026 4.65425C1.66787 4.65425 1.74857 4.65425 1.85618 4.65425C1.93688 4.65425 2.01758 4.65425 2.07139 4.65425C2.3673 4.65425 2.63631 4.62779 2.93222 4.57489C3.22813 4.52199 3.47024 4.41618 3.71235 4.28393C3.92756 4.15167 4.11587 3.94007 4.27728 3.67556C4.41178 3.41105 4.49248 3.09363 4.49248 2.69686C4.49248 2.353 4.43868 2.06204 4.30418 1.85044C4.16967 1.61238 4.00826 1.42722 3.79306 1.29496C3.57785 1.16271 3.33574 1.0569 3.06673 1.004C2.71701 0.977547 2.448 0.951101 2.17899 0.951101Z" fill="#878787"/>
<path d="M10.7872 6.45406H7.50524L6.6175 8.86111H5.56836L8.931 0H9.41522L12.7779 8.86111H11.6749L10.7872 6.45406ZM7.85495 5.55472H10.4644L9.46902 2.90962L9.14621 1.58706L8.82339 2.93607L7.85495 5.55472Z" fill="#878787"/>
<path d="M14.3897 4.76159V3.8887H14.6049C14.6856 3.8887 14.7663 3.8887 14.8739 3.8887C14.9815 3.8887 15.0891 3.8887 15.1967 3.8887C15.3043 3.8887 15.4119 3.86226 15.5196 3.86226C15.6272 3.86226 15.7079 3.83581 15.7886 3.83581C16.0038 3.80936 16.219 3.75645 16.4073 3.6771C16.5956 3.59775 16.7839 3.49194 16.9184 3.35968C17.0529 3.22743 17.1874 3.09518 17.2681 2.93647C17.3488 2.77777 17.4026 2.59261 17.4026 2.381C17.4026 2.11649 17.3488 1.87843 17.2681 1.69327C17.1874 1.50811 17.0529 1.37585 16.8915 1.2436C16.7301 1.13779 16.5418 1.05844 16.3266 1.00554C16.1114 0.952638 15.8693 0.92619 15.6272 0.92619C15.1698 0.92619 14.7932 0.95264 14.4704 1.03199C14.1476 1.08489 13.8786 1.16425 13.6903 1.27005L13.4213 0.450066C13.5827 0.370713 13.9055 0.264915 14.3359 0.159111C14.7663 0.0533065 15.2774 0.0268555 15.8155 0.0268555C16.1652 0.0268555 16.488 0.0533049 16.8108 0.132658C17.1336 0.212011 17.4295 0.317812 17.6985 0.476519C17.9676 0.635225 18.1559 0.846834 18.3173 1.1378C18.4787 1.42876 18.5594 1.74617 18.5594 2.16939C18.5594 2.5926 18.4249 2.98937 18.129 3.35968C17.8599 3.73 17.4295 4.02096 16.8646 4.17967V4.23257C17.4564 4.31193 17.9406 4.52354 18.2904 4.89385C18.6401 5.26416 18.8015 5.74028 18.8015 6.32221C18.8015 6.79833 18.6939 7.19509 18.5056 7.53896C18.3173 7.88282 18.0752 8.17378 17.7523 8.38539C17.4564 8.59699 17.0798 8.78216 16.6763 8.88796C16.2728 8.99377 15.8693 9.04666 15.4657 9.04666C14.9008 9.04666 14.4435 9.02021 14.0938 8.94086C13.7441 8.88796 13.4482 8.80861 13.2061 8.7028L13.4751 7.77701C13.6634 7.85637 13.9324 7.93572 14.2821 8.01507C14.6318 8.06798 15.0622 8.12088 15.5465 8.12088C15.8155 8.12088 16.0576 8.09443 16.3266 8.01507C16.5687 7.93572 16.8108 7.82992 16.9991 7.69766C17.1874 7.56541 17.3488 7.38025 17.4833 7.14219C17.6178 6.93058 17.6716 6.66607 17.6716 6.37511C17.6716 5.84609 17.4833 5.47577 17.1067 5.21126C16.7301 4.9732 16.2459 4.8145 15.6541 4.78805C15.5465 4.78805 15.4657 4.76159 15.3581 4.76159C15.2774 4.76159 15.1698 4.76159 15.0891 4.76159H14.3897Z" fill="#878787"/>
<path d="M20.5762 0.237895C20.899 0.158542 21.2487 0.105638 21.6253 0.0791871C22.0019 0.052736 22.3785 0.0527344 22.7283 0.0527344C23.1049 0.0527344 23.5084 0.0791919 23.9119 0.158545C24.3154 0.237898 24.692 0.370147 25.0149 0.581756C25.3377 0.793364 25.6067 1.05788 25.8219 1.40174C26.0371 1.7456 26.1447 2.19527 26.1447 2.72429C26.1447 3.25331 26.0371 3.70298 25.8488 4.0733C25.6605 4.44361 25.3915 4.73457 25.0687 4.97263C24.7458 5.21069 24.3692 5.3694 23.9657 5.4752C23.5622 5.58101 23.1318 5.63391 22.6745 5.63391C22.6207 5.63391 22.5669 5.63391 22.4593 5.63391C22.3516 5.63391 22.2709 5.63391 22.1633 5.63391C22.0557 5.63391 21.9481 5.63391 21.8405 5.60746C21.7329 5.60746 21.6791 5.58101 21.6253 5.58101V8.8874H20.5762V0.237895ZM22.7283 0.952077C22.5131 0.952077 22.2978 0.952077 22.0826 0.952077C21.8674 0.952077 21.706 0.978523 21.5984 1.00497V4.62877C21.6522 4.65522 21.706 4.65523 21.8136 4.65523C21.8943 4.65523 22.0019 4.65523 22.1095 4.65523C22.2171 4.65523 22.2978 4.65523 22.4054 4.65523C22.4862 4.65523 22.5669 4.65523 22.6207 4.65523C22.9166 4.65523 23.1856 4.62877 23.4815 4.57587C23.7774 4.52297 24.0195 4.41716 24.2616 4.2849C24.4768 4.15265 24.6651 3.94104 24.8265 3.67653C24.9611 3.41202 25.0418 3.09461 25.0418 2.69784C25.0418 2.35398 24.988 2.06302 24.8535 1.85141C24.7189 1.61335 24.5575 1.42819 24.3423 1.29594C24.1271 1.16368 23.885 1.05788 23.616 1.00497C23.2663 0.978523 22.9973 0.952077 22.7283 0.952077Z" fill="#878787"/>
<path d="M31.0707 6.45406H27.8157L26.9279 8.86111H25.8788L29.2414 0H29.7256L33.0883 8.86111H31.9853L31.0707 6.45406ZM28.1654 5.55472H30.7748L29.7794 2.90962L29.4566 1.58706L29.1338 2.93607L28.1654 5.55472Z" fill="#878787"/>
<path d="M34.2695 0.158691H39.0848V1.08448H35.3187V3.70313C35.4532 3.67668 35.6415 3.65023 35.8567 3.62378C36.0719 3.59732 36.2602 3.59733 36.4754 3.59733C36.9058 3.59733 37.3094 3.62378 37.7129 3.70313C38.0895 3.78249 38.4392 3.91474 38.7351 4.0999C39.031 4.28506 39.2731 4.54957 39.4345 4.86698C39.5959 5.18439 39.7036 5.60761 39.7036 6.11018C39.7036 6.61275 39.6228 7.03597 39.4345 7.40628C39.2462 7.7766 39.031 8.06756 38.7351 8.27916C38.4392 8.51722 38.0895 8.67593 37.7129 8.78173C37.3094 8.88754 36.9058 8.94044 36.4754 8.94044C36.3409 8.94044 36.1795 8.94044 35.9912 8.94044C35.8029 8.94044 35.6146 8.91399 35.4263 8.91399C35.238 8.88754 35.0228 8.88754 34.8345 8.86109C34.6461 8.83464 34.4578 8.80819 34.2964 8.75529L34.2695 0.158691ZM36.583 8.09401C36.852 8.09401 37.121 8.06755 37.3632 7.9882C37.6053 7.90885 37.8205 7.80305 38.0088 7.67079C38.1971 7.53854 38.3316 7.35338 38.4392 7.11532C38.5468 6.90371 38.6006 6.6392 38.6006 6.32179C38.6006 5.95147 38.5468 5.63406 38.4123 5.396C38.2778 5.15794 38.1164 4.97278 37.9281 4.84053C37.7129 4.70827 37.4977 4.62892 37.2286 4.57601C36.9596 4.52311 36.6906 4.49667 36.3947 4.49667C36.314 4.49667 36.2333 4.49667 36.1257 4.49667C36.0181 4.49667 35.9105 4.52312 35.8298 4.52312C35.7222 4.52312 35.6415 4.54956 35.5608 4.54956C35.4801 4.54956 35.3994 4.57601 35.3725 4.57601V8.01465C35.4263 8.04111 35.507 8.04111 35.6146 8.04111C35.7222 8.04111 35.8298 8.06756 35.9374 8.06756C36.045 8.06756 36.1795 8.06756 36.2871 8.06756C36.3409 8.09401 36.4485 8.09401 36.583 8.09401Z" fill="#878787"/>
<path d="M40.8915 4.52313C40.8915 3.06833 41.2143 1.95738 41.833 1.16385C42.4517 0.396764 43.3395 0 44.4962 0C45.115 0 45.653 0.105799 46.1103 0.317408C46.5676 0.529017 46.9442 0.846429 47.2401 1.2432C47.5361 1.63996 47.7513 2.11609 47.9127 2.67156C48.0472 3.22703 48.1279 3.83541 48.1279 4.52313C48.1279 5.97794 47.8051 7.08888 47.1863 7.88242C46.5676 8.6495 45.653 9.04626 44.4962 9.04626C43.8775 9.04626 43.3395 8.94046 42.8822 8.72885C42.4248 8.51724 42.0482 8.19983 41.7523 7.80307C41.4564 7.4063 41.2412 6.93018 41.0798 6.37471C40.9453 5.81924 40.8915 5.21086 40.8915 4.52313ZM41.9944 4.52313C41.9944 4.99925 42.0482 5.47537 42.1289 5.89859C42.2365 6.3218 42.371 6.71857 42.5862 7.03599C42.8015 7.3534 43.0436 7.61791 43.3664 7.82952C43.6892 8.01468 44.0658 8.12047 44.4962 8.12047C45.2764 8.12047 45.8951 7.82951 46.3524 7.24759C46.8097 6.66567 47.0249 5.76633 47.0249 4.52313C47.0249 4.04702 46.9711 3.59734 46.8904 3.14768C46.7828 2.72446 46.6483 2.3277 46.4331 2.01028C46.2179 1.69287 45.9758 1.42836 45.653 1.21675C45.3302 1.03159 44.9535 0.925787 44.5231 0.925787C43.743 0.925787 43.1243 1.21675 42.6939 1.79867C42.2634 2.38059 41.9944 3.30639 41.9944 4.52313Z" fill="#878787"/>
<path d="M55.0399 1.08448H52.2691V8.88753H51.22V1.08448H48.4492V0.158691H55.0399V1.08448Z" fill="#878787"/>
<path d="M59.7232 6.45406H56.4681L55.5804 8.86111H54.5312L57.8939 0H58.3781L61.7407 8.86111H60.6378L59.7232 6.45406ZM56.8178 5.55472H59.4272L58.4319 2.90962L58.1091 1.58706L57.7863 2.93607L56.8178 5.55472Z" fill="#878787"/>
<path d="M68.2487 4.86657H63.9984V8.86069H62.9492V0.131836H63.9984V3.94079H68.2487V0.131836H69.2979V8.86069H68.2487V4.86657Z" fill="#878787"/>
<path d="M71.0723 4.52313C71.0723 3.06833 71.3951 1.95738 72.0138 1.16385C72.6325 0.396764 73.5203 0 74.677 0C75.2957 0 75.8338 0.105799 76.2911 0.317408C76.7484 0.529017 77.125 0.846429 77.4209 1.2432C77.7168 1.63996 77.932 2.11609 78.0935 2.67156C78.228 3.22703 78.3087 3.83541 78.3087 4.52313C78.3087 5.97794 77.9859 7.08888 77.3671 7.88242C76.7484 8.6495 75.8338 9.04626 74.677 9.04626C74.0583 9.04626 73.5203 8.94046 73.0629 8.72885C72.6056 8.51724 72.229 8.19983 71.9331 7.80307C71.6372 7.4063 71.422 6.93018 71.2606 6.37471C71.153 5.81924 71.0723 5.21086 71.0723 4.52313ZM72.2021 4.52313C72.2021 4.99925 72.2559 5.47537 72.3366 5.89859C72.4442 6.3218 72.5787 6.71857 72.7939 7.03599C73.0091 7.3534 73.2513 7.61791 73.5741 7.82952C73.8969 8.01468 74.2735 8.12047 74.7039 8.12047C75.4841 8.12047 76.1028 7.82951 76.5601 7.24759C77.0174 6.66567 77.2326 5.76633 77.2326 4.52313C77.2326 4.04702 77.1788 3.59734 77.0981 3.14768C76.9905 2.72446 76.856 2.3277 76.6408 2.01028C76.4256 1.69287 76.1835 1.42836 75.8607 1.21675C75.5379 1.03159 75.1612 0.925787 74.7308 0.925787C73.9507 0.925787 73.332 1.21675 72.9015 1.79867C72.4711 2.38059 72.2021 3.30639 72.2021 4.52313Z" fill="#878787"/>
<path d="M88.8519 2.14254C88.8519 2.35415 88.825 2.56575 88.7443 2.77736C88.6636 2.98897 88.5829 3.20058 88.4484 3.38573C88.3139 3.57089 88.1525 3.7296 87.9373 3.8883C87.7221 4.02056 87.4799 4.12636 87.184 4.20572V4.25862C87.4261 4.31153 87.6682 4.36442 87.9104 4.47023C88.1525 4.57603 88.3408 4.70829 88.5291 4.89345C88.7174 5.0786 88.8519 5.29021 88.9595 5.52827C89.0671 5.76633 89.1209 6.08374 89.1209 6.40115C89.1209 6.85082 89.0133 7.24759 88.825 7.56501C88.6367 7.88242 88.3946 8.17338 88.0718 8.35854C87.7759 8.57015 87.3992 8.72885 87.0226 8.8082C86.6191 8.91401 86.2156 8.96691 85.8121 8.96691C85.6776 8.96691 85.4893 8.96691 85.301 8.96691C85.1127 8.96691 84.8974 8.96691 84.6822 8.94046C84.467 8.94046 84.2518 8.91401 84.0366 8.88756C83.8214 8.86111 83.6331 8.83465 83.4717 8.78175V0.185153C83.7945 0.13225 84.1442 0.105799 84.5746 0.0528973C84.9781 0.0264462 85.4355 0 85.9197 0C86.2425 0 86.5922 0.0264478 86.915 0.07935C87.2647 0.132252 87.5606 0.23806 87.8566 0.396766C88.1256 0.555472 88.3677 0.767079 88.556 1.03159C88.7712 1.37545 88.8519 1.71932 88.8519 2.14254ZM85.2202 3.99411C85.3548 3.99411 85.5431 3.99411 85.7314 3.99411C85.9466 3.99411 86.108 3.96766 86.2425 3.96766C86.4577 3.88831 86.646 3.80896 86.8074 3.7296C86.9957 3.6238 87.1302 3.51799 87.2916 3.38573C87.4261 3.25348 87.5337 3.09478 87.6145 2.93607C87.6952 2.77736 87.7221 2.5922 87.7221 2.3806C87.7221 2.11609 87.6683 1.87802 87.5606 1.69287C87.453 1.50771 87.3185 1.37545 87.1302 1.26965C86.9419 1.16384 86.7536 1.08449 86.5115 1.03159C86.2963 0.978688 86.0542 0.95224 85.8121 0.95224C85.5431 0.95224 85.2741 0.952234 85.0319 0.978685C84.7898 0.978685 84.6284 1.00514 84.4939 1.03159V3.99411H85.2202ZM85.9197 8.09403C86.1887 8.09403 86.4577 8.06757 86.6998 7.98822C86.9419 7.93532 87.184 7.82952 87.3723 7.69726C87.5606 7.56501 87.7221 7.37984 87.8297 7.19468C87.9373 6.98308 87.9911 6.74502 87.9911 6.48051C87.9911 6.13665 87.9104 5.87214 87.7759 5.66053C87.6413 5.44892 87.453 5.29022 87.2378 5.18441C87.0226 5.07861 86.7536 4.99925 86.4846 4.94634C86.2156 4.89344 85.9197 4.89345 85.6507 4.89345H84.5477V7.98822C84.6015 8.01467 84.6822 8.01467 84.7898 8.01467C84.8974 8.01467 85.005 8.04112 85.1395 8.04112C85.2741 8.04112 85.4086 8.06758 85.5431 8.06758C85.7045 8.09403 85.8121 8.09403 85.9197 8.09403Z" fill="#878787"/>
<path d="M42.3961 20.657C44.3061 20.657 45.3015 20.0751 45.3015 18.9377C45.3015 17.8003 44.3061 17.2183 42.3961 17.2183H34.81V20.657H42.3961ZM34.81 30.92H31.3398V13.8062H42.9611C46.8079 13.8062 48.7717 15.499 48.7717 18.9377C48.7717 22.3499 46.8079 24.0692 42.9611 24.0692H34.81V30.92ZM3.49714 30.92H0V13.8062H3.49714V30.92ZM114.948 13.8062H118.419V25.2066C118.419 29.0155 116.482 30.92 112.608 30.92H106.797C102.924 30.92 100.987 29.0155 100.987 25.2066V13.8062H104.484V24.7569C104.484 26.582 105.372 27.5078 107.255 27.5078H112.124C113.98 27.5078 114.922 26.582 114.922 24.7569L114.948 13.8062ZM84.1736 20.657C86.0835 20.657 87.0789 20.0751 87.0789 18.9377C87.0789 17.8003 86.1104 17.2183 84.1736 17.2183H76.5875V20.657H84.1736ZM78.3629 24.0692H76.5875V30.92H73.1441V13.8062H84.7654C88.6123 13.8062 90.576 15.499 90.576 18.9377C90.576 22.3499 88.6123 24.0692 84.7654 24.0692H83.5817L91.7059 30.92H86.4871L78.3629 24.0692ZM97.5165 30.92H94.0194V13.8062H97.5165V30.92ZM119.71 30.9465L125.44 13.8062H128.91L123.207 30.9465H119.71ZM137.142 30.9465H133.645L139.348 13.8062H142.845L137.142 30.9465ZM126.704 30.9465L132.407 13.8062H135.878L130.174 30.92L126.704 30.9465ZM5.89134 30.9993L11.5944 13.8591H15.0915L9.38849 30.9993H5.89134ZM23.2964 30.9993H19.7992L25.5023 13.8591H28.9725L23.2964 30.9993ZM12.8587 30.9993L18.5618 13.8591H22.032L16.329 30.9993H12.8587Z" fill="#878787"/>
<path d="M156 8.86031C156 11.5583 153.848 13.6744 151.023 13.6744C148.252 13.6744 146.02 11.5583 146.02 8.86031C146.02 6.21521 148.225 4.09912 151.023 4.09912C153.848 4.09912 156 6.21521 156 8.86031ZM147.284 8.86031C147.284 10.9764 148.871 12.6693 151.077 12.6693C153.202 12.6693 154.762 10.9764 154.762 8.88677C154.762 6.77068 153.202 5.05136 151.05 5.05136C148.871 5.05136 147.284 6.77068 147.284 8.86031ZM150.27 11.3467H149.14V6.58552C149.57 6.50617 150.216 6.45326 150.996 6.45326C151.911 6.45326 152.314 6.58552 152.691 6.79713C152.96 7.00873 153.175 7.37905 153.175 7.85517C153.175 8.38419 152.772 8.78096 152.18 8.96612V9.01902C152.664 9.20418 152.906 9.54804 153.068 10.1829C153.202 10.897 153.31 11.188 153.417 11.3732H152.207C152.072 11.188 151.965 10.7648 151.83 10.2093C151.749 9.6803 151.454 9.44223 150.835 9.44223H150.297L150.27 11.3467ZM150.297 8.6487H150.835C151.454 8.6487 151.965 8.4371 151.965 7.96098C151.965 7.53776 151.642 7.2468 150.942 7.2468C150.647 7.2468 150.431 7.27325 150.324 7.2997V8.6487H150.297Z" fill="#878787"/>
<path d="M52.0244 30.92V27.5078H69.4563V30.92H52.0244Z" fill="#878787"/>
<path d="M52.0244 20.6582H69.4563V24.0704H52.0244V20.6582Z" fill="#878787"/>
<path d="M52.0244 13.833H69.4563V17.2452H52.0244V13.833Z" fill="#878787"/>
</g>
</svg>
