<svg width="20" height="20" viewBox="0 0 20 20" fill="none" xmlns="http://www.w3.org/2000/svg">
<path d="M17.4786 15.1005L15.3095 17.2522C14.9893 17.5805 14.5649 17.6918 14.1516 17.6923C12.3238 17.6375 10.5961 16.7397 9.17751 15.8177C6.84902 14.1238 4.71254 12.0233 3.37164 9.48501C2.85736 8.42061 2.25392 7.06252 2.31157 5.87446C2.31672 5.42754 2.43715 4.98891 2.75191 4.70083L4.92096 2.53287C5.37137 2.14975 5.80695 2.28221 6.09518 2.72847L7.84019 6.03747C8.02386 6.42948 7.9185 6.84951 7.64447 7.12962L6.84534 7.92834C6.79601 7.99592 6.7646 8.07284 6.7638 8.15656C7.07024 9.34274 7.99859 10.436 8.81869 11.1884C9.63878 11.9408 10.5203 12.9602 11.6645 13.2015C11.806 13.241 11.9792 13.2548 12.0804 13.1608L13.01 12.2153C13.3305 11.9725 13.7932 11.8537 14.1353 12.0523H14.1516L17.2992 13.9106C17.7612 14.2002 17.8094 14.76 17.4786 15.1005Z" fill="#373737"/>
</svg>
